<svg xmlns="http://www.w3.org/2000/svg" xmlns:xlink="http://www.w3.org/1999/xlink"><defs><symbol viewBox="0 0 42 42" id="Add"><path d="M42 19H23V0h-4v19H0v4h19v19h4V23h19z" /></symbol><symbol viewBox="0 0 174.239 174.239" id="Cross"><path d="M146.537 1.047a3.6 3.6 0 00-5.077 0L89.658 52.849a3.6 3.6 0 01-5.077 0L32.78 1.047a3.6 3.6 0 00-5.077 0L1.047 27.702a3.6 3.6 0 000 5.077l51.802 51.802a3.6 3.6 0 010 5.077L1.047 141.46a3.6 3.6 0 000 5.077l26.655 26.655a3.6 3.6 0 005.077 0l51.802-51.802a3.6 3.6 0 015.077 0l51.801 51.801a3.6 3.6 0 005.077 0l26.655-26.655a3.6 3.6 0 000-5.077L121.39 89.658a3.6 3.6 0 010-5.077l51.801-51.801a3.6 3.6 0 000-5.077L146.537 1.047z" /></symbol><symbol viewBox="0 0 46.939 46.94" id="Key"><path d="M40.139 26.858l.008-.063c.408-2.277-.002-10.525-.621-12.43-.662-2.046-1.533-4.339-3.422-5.796a10.707 10.707 0 00-2.619-4.342C29.299.014 22.488-.008 18.274 4.176c-3.02 2.999-3.875 7.344-2.584 11.117L13.9 17.07l1.364 1.374-.027.025-2.899.124.337 2.421-.362.359-3.011.105.34 2.546-.299.298-2.696-.207.229 2.658-.502.498-2.671.031-.471 3.091-.78.772-2.076-.822L0 33.602l.747.752.564.567 15.263-15.159.761.767L2.072 35.69l2.282 2.297 15.263-15.158.891.896 1.789-1.775a10.77 10.77 0 009.165-.991c.274.693.558 1.392.843 2.09.213.518.407.992.574 1.411.145.362.282.814.43 1.295.125.407.256.831.4 1.246l-8.812 3.329 4.055 1.269-3.061 9.778 14.416 4.512 3.062-9.778 3.571 1.116-6.801-10.369zm-8.676-16.533a2.878 2.878 0 01-1.706.813c.007-.707.138-1.282.437-1.659.656-.823 1.353-1.25 2.115-1.34a2.879 2.879 0 01-.846 2.186zm-4.091-4.118a2.902 2.902 0 014.104.014c.273.275.478.593.617.931-.988.141-1.883.7-2.683 1.704-.431.542-.623 1.308-.638 2.236a2.883 2.883 0 01-1.418-.779 2.908 2.908 0 01.018-4.106zm6.892 19.253c-.156-.51-.304-.988-.457-1.374-.168-.421-.365-.897-.578-1.419-.273-.67-.59-1.442-.916-2.267a10.51 10.51 0 001.119-.961c2.491-2.475 3.506-5.863 3.065-9.094 1.012 1.248 1.601 2.854 2.078 4.327.485 1.5.852 7.869.694 10.86l-.334-.509-4.293 1.62a29.574 29.574 0 01-.378-1.183zm4.534 3.001a1.41 1.41 0 01-.271.466c-.254.269-.664.323-.965.323-.674 0-1.467-.284-1.89-.676-.042-.039-.081-.09-.121-.136l2.589-.979.658 1.002zm3.257 5.14l-3.061 9.779-10.6-3.315 3.061-9.78-.43-.134 3.549-1.342c.129.185.266.355.419.498.606.564 1.64.943 2.569.943.711 0 1.295-.22 1.688-.634.063-.066.104-.149.157-.225l2.789 4.253-.141-.043z" /></symbol><symbol viewBox="0 0 528.899 528.899" id="Pencil"><path d="M328.883 89.125l107.59 107.589-272.34 272.34L56.604 361.465l272.279-272.34zm189.23-25.948l-47.981-47.981c-18.543-18.543-48.653-18.543-67.259 0l-45.961 45.961 107.59 107.59 53.611-53.611c14.382-14.383 14.382-37.577 0-51.959zM.3 512.69c-1.958 8.812 5.998 16.708 14.811 14.565l119.891-29.069L27.473 390.597.3 512.69z" /></symbol><symbol viewBox="0 0 342.357 342.357" id="Tick"><path d="M290.04 33.286L118.861 204.427l-66.541-66.52L0 190.226l118.862 118.845L342.357 85.606z" /></symbol><symbol viewBox="0 0 459 459" id="Trash"><path d="M76.5 408c0 28.05 22.95 51 51 51h204c28.05 0 51-22.95 51-51V102h-306v306zM408 25.5h-89.25L293.25 0h-127.5l-25.5 25.5H51v51h357v-51z" /></symbol><symbol viewBox="0 0 350 350" id="User"><path d="M175 171.173c38.914 0 70.463-38.318 70.463-85.586C245.463 38.318 235.105 0 175 0s-70.465 38.318-70.465 85.587c0 47.268 31.549 85.586 70.465 85.586zM41.909 301.853c-.012-2.882-.024-.812 0 0zM308.085 304.104c.038-.789.013-5.474 0 0z" /><path d="M307.935 298.397c-1.305-82.342-12.059-105.805-94.352-120.657 0 0-11.584 14.761-38.584 14.761s-38.586-14.761-38.586-14.761C55.018 192.43 43.61 215.545 42.11 295.722c-.123 6.547-.18 6.891-.202 6.131.005 1.424.011 4.058.011 8.651 0 0 19.592 39.496 133.08 39.496 113.486 0 133.08-39.496 133.08-39.496 0-2.951.002-5.003.005-6.399-.022.47-.066-.441-.149-5.708z" /></symbol><symbol viewBox="0 0 174.239 174.239" id="cross"><path d="M146.537 1.047a3.6 3.6 0 00-5.077 0L89.658 52.849a3.6 3.6 0 01-5.077 0L32.78 1.047a3.6 3.6 0 00-5.077 0L1.047 27.702a3.6 3.6 0 000 5.077l51.802 51.802a3.6 3.6 0 010 5.077L1.047 141.46a3.6 3.6 0 000 5.077l26.655 26.655a3.6 3.6 0 005.077 0l51.802-51.802a3.6 3.6 0 015.077 0l51.801 51.801a3.6 3.6 0 005.077 0l26.655-26.655a3.6 3.6 0 000-5.077L121.39 89.658a3.6 3.6 0 010-5.077l51.801-51.801a3.6 3.6 0 000-5.077L146.537 1.047z" /></symbol></defs></svg>